<svg width="15" height="15" viewBox="0 0 15 15" fill="none" xmlns="http://www.w3.org/2000/svg">
<g clip-path="url(#clip0_23_2)">
<path d="M8.82579 7.50022L14.7256 1.6011C15.0918 1.23487 15.0918 0.641109 14.7256 0.274913C14.3593 -0.0913122 13.7656 -0.0913122 13.3994 0.274913L7.50022 6.17465L1.6011 0.274913C1.23487 -0.0913122 0.641109 -0.0913122 0.274913 0.274913C-0.0912829 0.641138 -0.0913122 1.2349 0.274913 1.6011L6.17465 7.50022L0.274913 13.3994C-0.0913122 13.7656 -0.0913122 14.3594 0.274913 14.7256C0.641138 15.0918 1.2349 15.0918 1.6011 14.7256L7.50022 8.82579L13.3993 14.7256C13.7656 15.0918 14.3593 15.0918 14.7255 14.7256C15.0918 14.3593 15.0918 13.7656 14.7255 13.3994L8.82579 7.50022Z" fill="#474849"/>
</g>
<defs>
<clipPath id="clip0_23_2">
<rect width="15" height="15" fill="white"/>
</clipPath>
</defs>
</svg>
