<svg width="226" height="65" viewBox="0 0 226 65" fill="none" xmlns="http://www.w3.org/2000/svg">
<path d="M12.66 21.5103C12.66 14.0841 14.133 0.999985 27.1587 1C40.9501 1.00002 40.9501 14.4378 40.9501 21.5103M27.1587 17.974C52.2661 17.974 52.2661 15.8523 52.2661 38.4844C52.2661 63.5918 58.9851 63.5918 27.1587 63.5918C-3.96841 63.5918 1.34404 63.5918 1.34401 38.4844C1.34398 13.3769 1.34401 17.974 27.1587 17.974Z" stroke="#212529"/>
<path d="M27.5437 52.468C28.4764 52.468 29.3863 52.3429 30.2735 52.0927C31.1834 51.8197 31.9909 51.4216 32.6961 50.8984C33.3558 50.398 33.8904 49.7724 34.2998 49.0217C34.732 48.2483 34.9482 47.3498 34.9482 46.3261C34.9482 45.5072 34.8117 44.7679 34.5387 44.1082C34.2657 43.4485 33.8904 42.8684 33.4127 42.368C32.935 41.8675 32.3776 41.4581 31.7407 41.1396C31.1265 40.8211 30.4896 40.5936 29.8299 40.4572C31.263 40.0704 32.3208 39.3425 33.0032 38.2734C33.7084 37.2042 34.061 35.9644 34.061 34.5541C34.061 33.5077 33.8904 32.6091 33.5492 31.8585C33.2079 31.085 32.7189 30.4595 32.0819 29.9818C31.4677 29.5041 30.7171 29.1515 29.8299 28.924C28.9427 28.6965 27.9759 28.5828 26.9295 28.5828H19.3886V29.9135H21.47V51.1373H19.3886V52.468H27.5437ZM22.869 41.1396H26.8272C27.6916 41.1396 28.5219 41.242 29.3181 41.4467C30.137 41.6514 30.8649 41.9585 31.5019 42.368C32.116 42.7547 32.6051 43.2779 32.9691 43.9376C33.3558 44.5745 33.5492 45.3366 33.5492 46.2237C33.5492 47.0427 33.3786 47.7592 33.0373 48.3734C32.7189 48.9876 32.2867 49.4881 31.7407 49.8748C31.172 50.307 30.5123 50.6255 29.7616 50.8302C29.0337 51.0349 28.2489 51.1373 27.4072 51.1373H22.869V41.1396ZM22.869 29.9135H27.2366C28.0328 29.9135 28.7494 30.0045 29.3863 30.1865C30.046 30.3685 30.6147 30.6414 31.0924 31.0054C31.5928 31.3694 31.9796 31.8585 32.2525 32.4726C32.5255 33.0868 32.662 33.8148 32.662 34.6564C32.662 36.2033 32.1843 37.4544 31.2289 38.4098C30.2962 39.3425 29.011 39.8088 27.3731 39.8088H22.869V29.9135Z" fill="#212529"/>
<path d="M78.0444 51.4212V23.6026H87.0773C88.7617 23.6026 90.1834 23.9014 91.3425 24.4991C92.5016 25.0968 93.38 25.9344 93.9776 27.012C94.5844 28.0896 94.8877 29.3438 94.8877 30.7746C94.8877 31.8975 94.7066 32.8936 94.3444 33.7629C93.9822 34.6322 93.4751 35.3521 92.8231 35.9226C92.1801 36.4841 91.424 36.8735 90.5546 37.0908V37.2538C91.5145 37.3263 92.4065 37.6613 93.2306 38.259C94.0546 38.8476 94.7157 39.649 95.2137 40.6632C95.7208 41.6774 95.9744 42.8592 95.9744 44.2085C95.9744 45.6302 95.6665 46.8844 95.0507 47.971C94.444 49.0486 93.5339 49.8953 92.3205 50.5111C91.107 51.1178 89.6038 51.4212 87.8108 51.4212H78.0444ZM79.7423 49.8455H87.8108C89.9026 49.8455 91.51 49.3203 92.6329 48.2699C93.7648 47.2194 94.3308 45.8656 94.3308 44.2085C94.3308 43.0403 94.0546 41.9944 93.5022 41.0707C92.9589 40.147 92.2027 39.4181 91.2338 38.8838C90.2649 38.3405 89.142 38.0688 87.8652 38.0688H79.7423V49.8455ZM79.7423 36.5203H87.6614C88.8477 36.5203 89.8528 36.2622 90.6769 35.7461C91.51 35.2299 92.1439 34.5371 92.5786 33.6678C93.0223 32.7985 93.2441 31.8341 93.2441 30.7746C93.2441 29.054 92.7099 27.6912 91.6413 26.686C90.5728 25.6808 89.0514 25.1783 87.0773 25.1783H79.7423V36.5203Z" fill="#212529"/>
<path d="M110.283 51.8694C109.078 51.8694 107.973 51.6295 106.968 51.1495C105.972 50.6696 105.171 49.9678 104.564 49.0441C103.966 48.1204 103.668 46.9976 103.668 45.6754C103.668 44.8061 103.821 44.0409 104.129 43.3799C104.437 42.7188 104.913 42.1483 105.556 41.6684C106.199 41.1884 107.023 40.7945 108.028 40.4866C109.033 40.1697 110.233 39.9252 111.627 39.7531C112.687 39.6264 113.633 39.5041 114.466 39.3864C115.299 39.2596 115.951 39.0649 116.422 38.8023C116.902 38.5397 117.142 38.1412 117.142 37.607V36.7376C117.142 35.2163 116.662 34.0074 115.702 33.1109C114.742 32.2144 113.42 31.7662 111.736 31.7662C110.242 31.7662 108.983 32.0967 107.96 32.7577C106.946 33.4097 106.235 34.2519 105.827 35.2842L104.265 34.7001C104.664 33.704 105.239 32.8755 105.99 32.2144C106.751 31.5534 107.62 31.0598 108.598 30.7338C109.585 30.4078 110.618 30.2448 111.695 30.2448C112.628 30.2448 113.515 30.3761 114.358 30.6387C115.209 30.9014 115.965 31.2998 116.626 31.8341C117.296 32.3684 117.826 33.052 118.215 33.8852C118.605 34.7092 118.799 35.6963 118.799 36.8463V51.4212H117.142V47.6586H117.02C116.658 48.4374 116.16 49.1482 115.526 49.7912C114.901 50.4251 114.145 50.9322 113.257 51.3125C112.379 51.6838 111.387 51.8694 110.283 51.8694ZM110.446 50.3345C111.75 50.3345 112.904 50.0176 113.909 49.3837C114.924 48.7407 115.716 47.8624 116.286 46.7485C116.857 45.6347 117.142 44.3715 117.142 42.9588V39.889C116.934 40.0701 116.631 40.2331 116.232 40.378C115.843 40.5138 115.399 40.636 114.901 40.7447C114.412 40.8443 113.896 40.9349 113.352 41.0164C112.818 41.0888 112.297 41.1567 111.79 41.2201C110.269 41.4012 109.028 41.682 108.069 42.0623C107.118 42.4336 106.42 42.9226 105.977 43.5293C105.542 44.136 105.325 44.8695 105.325 45.7298C105.325 47.1515 105.814 48.2744 106.792 49.0984C107.77 49.9225 108.988 50.3345 110.446 50.3345Z" fill="#212529"/>
<path d="M141.682 35.0533L140.147 35.4608C139.903 34.7001 139.554 34.0436 139.101 33.4912C138.648 32.9388 138.078 32.5132 137.39 32.2144C136.711 31.9065 135.896 31.7526 134.945 31.7526C133.414 31.7526 132.16 32.1329 131.182 32.8936C130.213 33.6542 129.729 34.6458 129.729 35.8683C129.729 36.8644 130.059 37.6885 130.72 38.3405C131.381 38.9834 132.391 39.4724 133.749 39.8075L136.955 40.6089C138.603 41.0164 139.844 41.6774 140.677 42.592C141.51 43.4976 141.927 44.625 141.927 45.9743C141.927 47.1243 141.614 48.1431 140.989 49.0305C140.364 49.918 139.5 50.6107 138.395 51.1088C137.299 51.6068 136.022 51.8558 134.564 51.8558C132.617 51.8558 131.019 51.4031 129.769 50.4975C128.52 49.5829 127.718 48.2744 127.365 46.5719L128.954 46.1644C129.253 47.5228 129.874 48.5596 130.815 49.275C131.766 49.9814 133.011 50.3345 134.551 50.3345C136.253 50.3345 137.625 49.9315 138.667 49.1256C139.717 48.3197 140.242 47.2873 140.242 46.0286C140.242 45.0687 139.934 44.2583 139.319 43.5972C138.703 42.9362 137.77 42.4517 136.52 42.1438L133.192 41.3288C131.49 40.9122 130.213 40.2467 129.362 39.3321C128.511 38.4084 128.085 37.2719 128.085 35.9226C128.085 34.7998 128.379 33.8127 128.968 32.9615C129.557 32.1103 130.367 31.4447 131.399 30.9647C132.432 30.4848 133.614 30.2448 134.945 30.2448C136.711 30.2448 138.15 30.6614 139.264 31.4945C140.378 32.3276 141.184 33.5139 141.682 35.0533Z" fill="#212529"/>
<path d="M151.779 43.2712L151.752 40.8941H152.187L162.619 30.5572H164.779L155.202 40.0655L155.039 40.1335L151.779 43.2712ZM150.34 51.4212V23.6026H151.997V51.4212H150.34ZM163.094 51.4212L154.292 40.2965L155.488 39.1962L165.213 51.4212H163.094Z" fill="#212529"/>
<path d="M179.644 51.8558C177.76 51.8558 176.121 51.3895 174.727 50.4568C173.332 49.524 172.254 48.2472 171.494 46.6263C170.733 45.0053 170.353 43.158 170.353 41.0843C170.353 39.0015 170.733 37.1451 171.494 35.5151C172.264 33.8852 173.318 32.5993 174.659 31.6575C175.999 30.7157 177.529 30.2448 179.25 30.2448C180.418 30.2448 181.523 30.4803 182.564 30.9512C183.615 31.413 184.538 32.0831 185.335 32.9615C186.141 33.8399 186.77 34.8994 187.223 36.14C187.685 37.3806 187.916 38.7751 187.916 40.3236V41.356H171.399V39.8482H186.259C186.259 38.3359 185.951 36.9731 185.335 35.7596C184.719 34.5462 183.882 33.5818 182.822 32.8664C181.763 32.151 180.572 31.7933 179.25 31.7933C177.864 31.7933 176.628 32.1827 175.542 32.9615C174.464 33.7312 173.608 34.7726 172.974 36.0856C172.35 37.3987 172.024 38.8657 171.996 40.4866V41.1658C171.996 42.9045 172.3 44.4665 172.906 45.852C173.522 47.2285 174.401 48.3197 175.542 49.1256C176.683 49.9225 178.05 50.3209 179.644 50.3209C180.785 50.3209 181.758 50.1308 182.564 49.7504C183.379 49.361 184.045 48.8902 184.561 48.3378C185.077 47.7854 185.466 47.2511 185.729 46.7349L187.237 47.3462C186.92 48.0435 186.426 48.7407 185.756 49.438C185.095 50.1262 184.253 50.7013 183.23 51.1631C182.216 51.6249 181.02 51.8558 179.644 51.8558Z" fill="#212529"/>
<path d="M203.674 30.5572V32.0378H194.56V30.5572H203.674ZM197.643 25.5586H199.287V46.4904C199.287 47.3417 199.45 48.0389 199.776 48.5823C200.111 49.1165 200.546 49.515 201.08 49.7776C201.623 50.0312 202.203 50.1579 202.818 50.1579C203.117 50.1579 203.375 50.1353 203.593 50.09C203.819 50.0447 204.032 49.9859 204.231 49.9134L204.639 51.4212C204.385 51.5117 204.104 51.5887 203.796 51.6521C203.489 51.7245 203.126 51.7608 202.71 51.7608C201.84 51.7608 201.016 51.5661 200.238 51.1767C199.468 50.7873 198.843 50.2213 198.363 49.4788C197.883 48.7362 197.643 47.8397 197.643 46.7893V25.5586Z" fill="#212529"/>
<path d="M225.756 35.0533L224.221 35.4608C223.976 34.7001 223.627 34.0436 223.175 33.4912C222.722 32.9388 222.151 32.5132 221.463 32.2144C220.784 31.9065 219.969 31.7526 219.018 31.7526C217.488 31.7526 216.234 32.1329 215.256 32.8936C214.287 33.6542 213.802 34.6458 213.802 35.8683C213.802 36.8644 214.133 37.6885 214.794 38.3405C215.455 38.9834 216.465 39.4724 217.823 39.8075L221.029 40.6089C222.677 41.0164 223.917 41.6774 224.75 42.592C225.583 43.4976 226 44.625 226 45.9743C226 47.1243 225.688 48.1431 225.063 49.0305C224.438 49.918 223.573 50.6107 222.468 51.1088C221.373 51.6068 220.096 51.8558 218.638 51.8558C216.691 51.8558 215.093 51.4031 213.843 50.4975C212.593 49.5829 211.792 48.2744 211.439 46.5719L213.028 46.1644C213.327 47.5228 213.947 48.5596 214.889 49.275C215.84 49.9814 217.085 50.3345 218.624 50.3345C220.327 50.3345 221.699 49.9315 222.74 49.1256C223.79 48.3197 224.316 47.2873 224.316 46.0286C224.316 45.0687 224.008 44.2583 223.392 43.5972C222.776 42.9362 221.844 42.4517 220.594 42.1438L217.266 41.3288C215.564 40.9122 214.287 40.2467 213.435 39.3321C212.584 38.4084 212.159 37.2719 212.159 35.9226C212.159 34.7998 212.453 33.8127 213.042 32.9615C213.63 32.1103 214.441 31.4447 215.473 30.9647C216.505 30.4848 217.687 30.2448 219.018 30.2448C220.784 30.2448 222.224 30.6614 223.338 31.4945C224.452 32.3276 225.257 33.5139 225.756 35.0533Z" fill="#212529"/>
</svg>
