<svg width="15" height="15" viewBox="0 0 15 15" fill="none" xmlns="http://www.w3.org/2000/svg">
<g clip-path="url(#clip0_23_7)">
<path d="M14.375 6.875H13.125V5.625C13.125 5.45924 13.0592 5.30027 12.9419 5.18306C12.8247 5.06585 12.6658 5 12.5 5C12.3342 5 12.1753 5.06585 12.0581 5.18306C11.9408 5.30027 11.875 5.45924 11.875 5.625V6.875H10.625C10.4592 6.875 10.3003 6.94085 10.1831 7.05806C10.0658 7.17527 10 7.33424 10 7.5C10 7.66576 10.0658 7.82473 10.1831 7.94194C10.3003 8.05915 10.4592 8.125 10.625 8.125H11.875V9.375C11.875 9.54076 11.9408 9.69973 12.0581 9.81694C12.1753 9.93415 12.3342 10 12.5 10C12.6658 10 12.8247 9.93415 12.9419 9.81694C13.0592 9.69973 13.125 9.54076 13.125 9.375V8.125H14.375C14.5408 8.125 14.6997 8.05915 14.8169 7.94194C14.9342 7.82473 15 7.66576 15 7.5C15 7.33424 14.9342 7.17527 14.8169 7.05806C14.6997 6.94085 14.5408 6.875 14.375 6.875Z" fill="#474849"/>
<path d="M5.625 7.5C6.36668 7.5 7.0917 7.28007 7.70839 6.86801C8.32507 6.45596 8.80572 5.87029 9.08955 5.18506C9.37338 4.49984 9.44764 3.74584 9.30295 3.01841C9.15825 2.29098 8.8011 1.6228 8.27665 1.09835C7.7522 0.573904 7.08402 0.216751 6.35659 0.0720569C5.62916 -0.0726377 4.87516 0.00162482 4.18994 0.285453C3.50471 0.569282 2.91904 1.04993 2.50699 1.66661C2.09493 2.2833 1.875 3.00832 1.875 3.75C1.87599 4.74426 2.2714 5.69751 2.97445 6.40056C3.67749 7.1036 4.63074 7.49901 5.625 7.5ZM5.625 1.25C6.11945 1.25 6.6028 1.39662 7.01393 1.67133C7.42505 1.94603 7.74548 2.33648 7.9347 2.79329C8.12392 3.25011 8.17343 3.75278 8.07696 4.23773C7.9805 4.72268 7.7424 5.16814 7.39277 5.51777C7.04314 5.8674 6.59768 6.1055 6.11273 6.20197C5.62777 6.29843 5.12511 6.24892 4.66829 6.0597C4.21148 5.87048 3.82103 5.55005 3.54633 5.13893C3.27162 4.7278 3.125 4.24446 3.125 3.75C3.125 3.08696 3.38839 2.45108 3.85723 1.98223C4.32607 1.51339 4.96196 1.25 5.625 1.25V1.25Z" fill="#474849"/>
<path d="M5.625 8.75C4.13366 8.75165 2.70389 9.34482 1.64935 10.3994C0.594818 11.4539 0.00165428 12.8837 0 14.375C0 14.5408 0.065848 14.6997 0.183058 14.8169C0.300269 14.9342 0.45924 15 0.625 15C0.79076 15 0.949732 14.9342 1.06694 14.8169C1.18415 14.6997 1.25 14.5408 1.25 14.375C1.25 13.2147 1.71094 12.1019 2.53141 11.2814C3.35188 10.4609 4.46468 10 5.625 10C6.78532 10 7.89812 10.4609 8.71859 11.2814C9.53906 12.1019 10 13.2147 10 14.375C10 14.5408 10.0658 14.6997 10.1831 14.8169C10.3003 14.9342 10.4592 15 10.625 15C10.7908 15 10.9497 14.9342 11.0669 14.8169C11.1842 14.6997 11.25 14.5408 11.25 14.375C11.2483 12.8837 10.6552 11.4539 9.60065 10.3994C8.54611 9.34482 7.11634 8.75165 5.625 8.75V8.75Z" fill="#474849"/>
</g>
<defs>
<clipPath id="clip0_23_7">
<rect width="15" height="15" fill="white"/>
</clipPath>
</defs>
</svg>
